<?xml version="1.0" encoding="utf-8"?>
<svg viewBox="71.158 125.339 375.456 297.9" xmlns="http://www.w3.org/2000/svg">
  <g id="layer1" transform="matrix(-1, 0, 0, -1, 713.171936, 795.222534)">
    <path style="fill:#ffffff;fill-opacity:1;fill-rule:nonzero;stroke:#ffffff;stroke-width:0;stroke-linecap:round;stroke-linejoin:miter;stroke-miterlimit:4;stroke-opacity:1;stroke-dasharray:none;stroke-dashoffset:0" id="path3797" d="m 540.90048,385.40582 c -10.57272,-1.4614 -21.21958,-2.1695 -31.86311,-2.8901 -21.0823,-0.9696 -42.23988,-0.8957 -63.23893,1.4285 -5.62754,0.6229 -11.22297,1.5079 -16.83446,2.2618 -24.12256,3.9013 -48.15206,10.1724 -69.63971,22.1665 -15.11101,8.4347 -17.33024,11.4501 -30.50841,22.6676 -4.49389,4.8865 -9.29117,9.5105 -13.48166,14.6596 -17.28503,21.2389 -30.10355,46.8451 -35.28256,73.8241 -1.26238,6.5761 -1.58069,13.2987 -2.37104,19.9481 0.33649,6.5081 0.0616,13.0769 1.00947,19.5245 2.88439,19.6195 11.73095,37.5183 25.8501,51.5135 13.90296,13.7808 21.81514,16.5655 39.03989,26.1806 8.54272,3.2308 16.89335,7.0242 25.62816,9.6924 38.06694,11.6283 79.23519,14.1518 118.34421,6.4813 9.51474,-1.8662 18.72652,-5.0367 28.08978,-7.5551 8.57747,-3.7065 17.43833,-6.8162 25.73242,-11.1196 29.71226,-15.4164 56.88313,-39.6952 73.61876,-68.8792 3.74077,-6.5232 6.35216,-13.6321 9.52823,-20.4481 1.77463,-6.8762 4.29963,-13.6014 5.32388,-20.6287 3.01446,-20.6818 -1.3306,-41.4052 -13.25698,-58.6941 -11.72077,-16.9908 -19.68719,-20.7889 -36.25263,-33.3249 -8.87976,-4.577 -17.42559,-9.87 -26.63929,-13.7309 -44.85306,-18.7951 -96.84005,-23.7371 -144.92436,-19.0285 -13.1933,1.2919 -26.20614,4.0208 -39.30921,6.0312 -12.42329,3.3892 -24.84658,6.7785 -37.26986,10.1677 -2.93943,1.063 -7.6373,-11.9275 -4.69787,-12.9905 l 0,0 c 12.89082,-3.5864 25.78165,-7.1728 38.67248,-10.7592 13.6041,-2.1066 27.10412,-5.0569 40.8123,-6.3198 51.29321,-4.7255 105.97914,0.9807 153.35381,22.1669 9.70352,4.3395 18.64433,10.215 27.9665,15.3225 17.88958,14.3353 26.16154,18.4848 38.62204,37.648 12.8249,19.7236 17.41256,43.0178 14.00355,66.1864 -1.1295,7.6764 -3.86081,15.0302 -5.79122,22.5453 -3.4054,7.3708 -6.20849,15.051 -10.21621,22.1125 -17.65816,31.1129 -46.33165,57.0062 -77.84945,73.5586 -8.77081,4.6063 -18.14815,7.9513 -27.22222,11.9269 -9.86652,2.7113 -19.56787,6.1177 -29.59955,8.1337 -41.68743,8.3776 -85.91022,5.406 -126.29488,-7.7535 -9.19975,-2.9977 -17.95681,-7.2139 -26.93521,-10.8209 -18.64071,-10.9971 -26.67335,-13.936 -41.58948,-29.4739 -15.2317,-15.8666 -24.78855,-35.8926 -27.86195,-57.6238 -0.99497,-7.0351 -0.672,-14.1944 -1.008,-21.2916 0.85971,-7.1413 1.21292,-14.3619 2.57914,-21.4238 5.5461,-28.6674 19.19592,-55.8055 37.67644,-78.2942 4.4835,-5.4559 9.61089,-10.3491 14.41634,-15.5237 14.13289,-11.9289 16.56733,-15.1648 32.70804,-24.1558 22.44725,-12.5041 47.50717,-19.1657 72.73813,-23.0549 5.78333,-0.728 11.55077,-1.5959 17.34998,-2.1841 22.13636,-2.2455 44.43014,-1.8956 66.60009,-0.3874 10.65574,0.9732 21.32437,1.9378 31.85319,3.9071 1.87829,0.3572 0.29961,8.6582 -1.57868,8.301 z"/>
  </g>
</svg>