<svg xmlns="http://www.w3.org/2000/svg" xmlns:xlink="http://www.w3.org/1999/xlink" version="1.1" width="256" height="256" viewBox="0 0 256 256" xml:space="preserve">
<desc>Created with Fabric.js 1.7.22</desc>
<defs>
</defs>
<g transform="translate(128 128) scale(0.72 0.72)" style="">
	<g style="stroke: none; stroke-width: 0; stroke-dasharray: none; stroke-linecap: butt; stroke-linejoin: miter; stroke-miterlimit: 10; fill: none; fill-rule: nonzero; opacity: 1;" transform="translate(-175.05 -175.05000000000004) scale(3.89 3.89)" >
	<circle cx="45" cy="45" r="45" style="stroke: none; stroke-width: 1; stroke-dasharray: none; stroke-linecap: butt; stroke-linejoin: miter; stroke-miterlimit: 10; fill: #d86e41; fill-rule: nonzero; opacity: 1;" transform="  matrix(1 0 0 1 0 0) "/>
	<path d="M 70.843 38.067 l -7.986 2.157 l 0.911 -3.4 c 0.285 -1.065 -0.348 -2.168 -1.408 -2.452 L 24.975 24.355 c -1.06 -0.284 -2.16 0.355 -2.446 1.419 l -4.461 16.649 c -0.285 1.065 0.348 2.168 1.408 2.452 l 37.384 10.017 c 1.06 0.284 2.16 -0.355 2.445 -1.419 l 0.911 -3.4 l 5.838 5.861 c 0.883 0.886 2.392 0.478 2.717 -0.734 l 4.057 -15.14 C 73.153 38.849 72.05 37.741 70.843 38.067 z" style="stroke: none; stroke-width: 1; stroke-dasharray: none; stroke-linecap: butt; stroke-linejoin: miter; stroke-miterlimit: 10; fill:#c35528; fill-rule: nonzero; opacity: 1;" transform=" matrix(1 0 0 1 0 0) " stroke-linecap="round" />
	<path d="M 20.728 71.826 c -1.657 0 -3 -1.343 -3 -3 V 53.179 c 0 -1.657 1.343 -3 3 -3 s 3 1.343 3 3 v 15.647 C 23.728 70.483 22.385 71.826 20.728 71.826 z" style="stroke: none; stroke-width: 1; stroke-dasharray: none; stroke-linecap: butt; stroke-linejoin: miter; stroke-miterlimit: 10; fill: #c35528; fill-rule: nonzero; opacity: 1;" transform=" matrix(1 0 0 1 0 0) " stroke-linecap="round" />
	<polygon points="35.36,64 20.98,64 20.98,58 30.75,58 35.52,39.98 41.32,41.51 " style="stroke: none; stroke-width: 1; stroke-dasharray: none; stroke-linecap: butt; stroke-linejoin: miter; stroke-miterlimit: 10; fill: #c35528; fill-rule: nonzero; opacity: 1;" transform="  matrix(1 0 0 1 0 0) "/>
	<path d="M 73.957 34.953 L 65.97 37.11 l 0.911 -3.4 c 0.285 -1.065 -0.348 -2.168 -1.408 -2.452 L 28.089 21.241 c -1.06 -0.284 -2.16 0.355 -2.446 1.419 l -4.461 16.649 c -0.285 1.065 0.348 2.168 1.408 2.452 l 37.384 10.017 c 1.06 0.284 2.16 -0.355 2.445 -1.419 l 0.911 -3.4 l 5.838 5.861 c 0.883 0.886 2.392 0.478 2.717 -0.734 l 4.057 -15.14 C 76.267 35.735 75.164 34.627 73.957 34.953 z" style="stroke: none; stroke-width: 1; stroke-dasharray: none; stroke-linecap: butt; stroke-linejoin: miter; stroke-miterlimit: 10; fill: rgb(255,255,255); fill-rule: nonzero; opacity: 1;" transform=" matrix(1 0 0 1 0 0) " stroke-linecap="round" />
	<path d="M 23.842 68.713 c -1.657 0 -3 -1.343 -3 -3 V 50.064 c 0 -1.657 1.343 -3 3 -3 s 3 1.343 3 3 v 15.648 C 26.842 67.37 25.499 68.713 23.842 68.713 z" style="stroke: none; stroke-width: 1; stroke-dasharray: none; stroke-linecap: butt; stroke-linejoin: miter; stroke-miterlimit: 10; fill: rgb(255,255,255); fill-rule: nonzero; opacity: 1;" transform=" matrix(1 0 0 1 0 0) " stroke-linecap="round" />
	<polygon points="38.48,60.89 24.1,60.89 24.1,54.89 33.86,54.89 38.63,36.86 44.43,38.4 " style="stroke: none; stroke-width: 1; stroke-dasharray: none; stroke-linecap: butt; stroke-linejoin: miter; stroke-miterlimit: 10; fill: rgb(255,255,255); fill-rule: nonzero; opacity: 1;" transform="  matrix(1 0 0 1 0 0) "/>
</g>
</g>
</svg>